<mxfile host="www.draw.io" modified="2020-02-18T13:32:06.745Z" agent="Mozilla/5.0 (Macintosh; Intel Mac OS X 10_15_3) AppleWebKit/537.36 (KHTML, like Gecko) Chrome/79.0.3945.130 Safari/537.36" etag="BoAubh3-ZQyatT3k-WlS" version="12.7.1" type="github">
  <diagram name="Page-1" id="82e54ff1-d628-8f03-85c4-9753963a91cd">
    <mxGraphModel dx="2218" dy="1320" grid="1" gridSize="10" guides="1" tooltips="1" connect="1" arrows="1" fold="1" page="1" pageScale="1" pageWidth="1654" pageHeight="1169" background="#ffffff" math="0" shadow="0">
      <root>
        <mxCell id="0" />
        <mxCell id="1" parent="0" />
        <mxCell id="4ec97bd9e5d20128-1" value="" style="line;strokeWidth=2;html=1;fillColor=none;fontSize=28;fontColor=#004D99;strokeColor=#004D99;" parent="1" vertex="1">
          <mxGeometry x="40" y="450" width="1760" height="10" as="geometry" />
        </mxCell>
        <mxCell id="4ec97bd9e5d20128-5" value="&lt;font style=&quot;font-size: 15px&quot;&gt;&lt;b&gt;Opposition to Rakosi&lt;/b&gt;&lt;/font&gt;" style="shape=offPageConnector;whiteSpace=wrap;html=1;fillColor=#0075E8;fontSize=15;fontColor=#FFFFFF;size=0.5093750000000015;verticalAlign=top;strokeColor=none;" parent="1" vertex="1">
          <mxGeometry x="120" y="350" width="160" height="80" as="geometry" />
        </mxCell>
        <mxCell id="4ec97bd9e5d20128-7" value="&lt;b&gt;Rakosi not supported by Moscow&lt;/b&gt;" style="shape=offPageConnector;whiteSpace=wrap;html=1;fillColor=#0075E8;fontSize=15;fontColor=#FFFFFF;size=0.4178571428571445;flipV=1;verticalAlign=bottom;strokeColor=none;spacingBottom=4;" parent="1" vertex="1">
          <mxGeometry x="347" y="475" width="160" height="75" as="geometry" />
        </mxCell>
        <mxCell id="4ec97bd9e5d20128-9" value="" style="ellipse;whiteSpace=wrap;html=1;fillColor=#61BAFF;fontSize=28;fontColor=#004D99;strokeWidth=3;strokeColor=#004D99;" parent="1" vertex="1">
          <mxGeometry x="190" y="445" width="20" height="20" as="geometry" />
        </mxCell>
        <mxCell id="4ec97bd9e5d20128-10" value="" style="ellipse;whiteSpace=wrap;html=1;fillColor=#61BAFF;fontSize=28;fontColor=#004D99;strokeWidth=3;strokeColor=#004D99;" parent="1" vertex="1">
          <mxGeometry x="417" y="445" width="20" height="20" as="geometry" />
        </mxCell>
        <mxCell id="4ec97bd9e5d20128-11" value="" style="ellipse;whiteSpace=wrap;html=1;fillColor=#61BAFF;fontSize=28;fontColor=#004D99;strokeWidth=3;strokeColor=#004D99;" parent="1" vertex="1">
          <mxGeometry x="643" y="445" width="20" height="20" as="geometry" />
        </mxCell>
        <mxCell id="4ec97bd9e5d20128-13" value="" style="ellipse;whiteSpace=wrap;html=1;fillColor=#61BAFF;fontSize=28;fontColor=#004D99;strokeWidth=3;strokeColor=#004D99;" parent="1" vertex="1">
          <mxGeometry x="870" y="445" width="20" height="20" as="geometry" />
        </mxCell>
        <mxCell id="4ec97bd9e5d20128-14" value="&lt;h1 style=&quot;font-size: 10px&quot;&gt;&lt;br&gt;&lt;/h1&gt;&lt;p style=&quot;font-size: 10px&quot;&gt;Lorem ipsum dolor sit amet, consectetur adipisicing elit, sed do eiusmod tempor incididunt ut labore et dolore magna aliqua.&lt;/p&gt;" style="text;html=1;spacing=5;spacingTop=-20;whiteSpace=wrap;overflow=hidden;strokeColor=none;strokeWidth=3;fillColor=#E6E6E6;fontSize=10;fontColor=#000000;align=center;rounded=1;" parent="1" vertex="1">
          <mxGeometry x="93" y="480" width="215" height="120" as="geometry" />
        </mxCell>
        <mxCell id="4ec97bd9e5d20128-16" value="&lt;h1 style=&quot;font-size: 10px&quot;&gt;&lt;br&gt;&lt;/h1&gt;&lt;p style=&quot;font-size: 10px&quot;&gt;Lorem ipsum dolor sit amet, consectetur adipisicing elit, sed do eiusmod tempor incididunt ut labore et dolore magna aliqua.&lt;/p&gt;" style="text;html=1;spacing=5;spacingTop=-20;whiteSpace=wrap;overflow=hidden;strokeColor=none;strokeWidth=3;fillColor=#E6E6E6;fontSize=10;fontColor=#000000;align=center;rounded=1;" parent="1" vertex="1">
          <mxGeometry x="319" y="300" width="215" height="120" as="geometry" />
        </mxCell>
        <mxCell id="4ec97bd9e5d20128-17" value="&lt;h1 style=&quot;font-size: 10px&quot;&gt;&lt;br&gt;&lt;/h1&gt;&lt;p style=&quot;font-size: 10px&quot;&gt;Lorem ipsum dolor sit amet, consectetur adipisicing elit, sed do eiusmod tempor incididunt ut labore et dolore magna aliqua.&lt;/p&gt;" style="text;html=1;spacing=5;spacingTop=-20;whiteSpace=wrap;overflow=hidden;strokeColor=none;strokeWidth=3;fillColor=#E6E6E6;fontSize=10;fontColor=#000000;align=center;rounded=1;" parent="1" vertex="1">
          <mxGeometry x="545" y="480" width="215" height="120" as="geometry" />
        </mxCell>
        <mxCell id="4ec97bd9e5d20128-18" value="&lt;h1 style=&quot;font-size: 10px&quot;&gt;&lt;br style=&quot;font-size: 10px&quot;&gt;&lt;/h1&gt;&lt;div&gt;&lt;br&gt;&lt;/div&gt;" style="text;html=1;spacing=5;spacingTop=-20;whiteSpace=wrap;overflow=hidden;strokeColor=none;strokeWidth=3;fillColor=#E6E6E6;fontSize=13;fontColor=#000000;align=center;rounded=1;" parent="1" vertex="1">
          <mxGeometry x="773" y="300" width="215" height="120" as="geometry" />
        </mxCell>
        <mxCell id="olR5RwuTCDaTEog6YX5e-5" value="Hungarian Uprising Timeline" style="text;html=1;strokeColor=none;fillColor=none;align=center;verticalAlign=middle;whiteSpace=wrap;rounded=0;fontSize=60;fontFamily=Georgia;" vertex="1" parent="1">
          <mxGeometry y="60" width="923.5" height="20" as="geometry" />
        </mxCell>
        <mxCell id="olR5RwuTCDaTEog6YX5e-7" value="&lt;font style=&quot;font-size: 20px&quot;&gt;By： Steven Zhou&lt;/font&gt;" style="text;html=1;strokeColor=none;fillColor=none;align=center;verticalAlign=middle;whiteSpace=wrap;rounded=0;fontFamily=Georgia;fontSize=60;" vertex="1" parent="1">
          <mxGeometry x="60" y="100" width="187" height="20" as="geometry" />
        </mxCell>
        <mxCell id="olR5RwuTCDaTEog6YX5e-14" value="&lt;font style=&quot;font-size: 12px&quot;&gt;June 1956, group of people oppose Rakosi’s rule in communist party&lt;/font&gt;" style="shape=offPageConnector;whiteSpace=wrap;html=1;fillColor=#0075E8;fontSize=12;fontColor=#FFFFFF;size=0;verticalAlign=top;strokeColor=none;" vertex="1" parent="1">
          <mxGeometry x="120" y="280" width="160" height="60" as="geometry" />
        </mxCell>
        <mxCell id="olR5RwuTCDaTEog6YX5e-16" value="&lt;font style=&quot;font-size: 12px&quot;&gt;Rakosi wanted to arrest 400 opponents but Moscow refused&lt;/font&gt;" style="shape=offPageConnector;whiteSpace=wrap;html=1;fillColor=#0075E8;fontSize=12;fontColor=#FFFFFF;size=0;verticalAlign=top;strokeColor=none;" vertex="1" parent="1">
          <mxGeometry x="346.5" y="560" width="163.5" height="60" as="geometry" />
        </mxCell>
        <mxCell id="olR5RwuTCDaTEog6YX5e-20" value="&lt;font style=&quot;font-size: 16px&quot;&gt;&lt;b&gt;Rakosi removed&lt;/b&gt;&lt;/font&gt;" style="shape=offPageConnector;whiteSpace=wrap;html=1;fillColor=#0075E8;fontSize=15;fontColor=#FFFFFF;size=0.5093750000000015;verticalAlign=top;strokeColor=none;" vertex="1" parent="1">
          <mxGeometry x="573" y="350" width="160" height="80" as="geometry" />
        </mxCell>
        <mxCell id="olR5RwuTCDaTEog6YX5e-21" value="&lt;font style=&quot;font-size: 12px&quot;&gt;Moscow ordered Rakosi to be “retired for health reasons”, New leader Erno Gero come up - but was also not acceptable by the Hungarians&lt;/font&gt;" style="shape=offPageConnector;whiteSpace=wrap;html=1;fillColor=#0075E8;fontSize=12;fontColor=#FFFFFF;size=0;verticalAlign=top;strokeColor=none;fontFamily=Garamond;" vertex="1" parent="1">
          <mxGeometry x="573" y="240" width="160" height="100" as="geometry" />
        </mxCell>
        <mxCell id="olR5RwuTCDaTEog6YX5e-22" value="&lt;font style=&quot;font-size: 16px&quot;&gt;&lt;b&gt;Rebellion&lt;/b&gt;&lt;/font&gt;" style="shape=offPageConnector;whiteSpace=wrap;html=1;fillColor=#0075E8;fontSize=15;fontColor=#FFFFFF;size=0.4178571428571445;flipV=1;verticalAlign=bottom;strokeColor=none;spacingBottom=4;" vertex="1" parent="1">
          <mxGeometry x="799.0699999999999" y="480" width="160" height="75" as="geometry" />
        </mxCell>
        <mxCell id="olR5RwuTCDaTEog6YX5e-23" value="&lt;span style=&quot;font-size: 11px&quot;&gt;23 October, student protests. Students Demanded an end to Soviet control &amp;amp; the implementation of “true socialism”. When students attempted to aid those who had been arrested, the police opened fire on the crowd. A 30-foot statue of Stalin was toppled by protestors.&amp;nbsp;&lt;/span&gt;" style="shape=offPageConnector;whiteSpace=wrap;html=1;fillColor=#0075E8;fontSize=11;fontColor=#FFFFFF;size=0;verticalAlign=top;strokeColor=none;fontFamily=Helvetica;" vertex="1" parent="1">
          <mxGeometry x="798.57" y="565" width="161.43" height="155" as="geometry" />
        </mxCell>
        <mxCell id="olR5RwuTCDaTEog6YX5e-24" value="" style="ellipse;whiteSpace=wrap;html=1;fillColor=#61BAFF;fontSize=28;fontColor=#004D99;strokeWidth=3;strokeColor=#004D99;" vertex="1" parent="1">
          <mxGeometry x="1108" y="445" width="20" height="20" as="geometry" />
        </mxCell>
        <mxCell id="olR5RwuTCDaTEog6YX5e-25" value="&lt;h1 style=&quot;font-size: 10px&quot;&gt;&lt;br&gt;&lt;/h1&gt;&lt;p style=&quot;font-size: 10px&quot;&gt;Lorem ipsum dolor sit amet, consectetur adipisicing elit, sed do eiusmod tempor incididunt ut labore et dolore magna aliqua.&lt;/p&gt;" style="text;html=1;spacing=5;spacingTop=-20;whiteSpace=wrap;overflow=hidden;strokeColor=none;strokeWidth=3;fillColor=#E6E6E6;fontSize=10;fontColor=#000000;align=center;rounded=1;" vertex="1" parent="1">
          <mxGeometry x="1010" y="480" width="215" height="120" as="geometry" />
        </mxCell>
        <mxCell id="olR5RwuTCDaTEog6YX5e-26" value="&lt;span style=&quot;font-size: 16px&quot;&gt;&lt;b&gt;Imre Nagy forms new government&lt;/b&gt;&lt;/span&gt;" style="shape=offPageConnector;whiteSpace=wrap;html=1;fillColor=#0075E8;fontSize=15;fontColor=#FFFFFF;size=0.5093750000000015;verticalAlign=top;strokeColor=none;" vertex="1" parent="1">
          <mxGeometry x="1038" y="350" width="160" height="80" as="geometry" />
        </mxCell>
        <mxCell id="olR5RwuTCDaTEog6YX5e-27" value="&lt;font style=&quot;font-size: 12px&quot;&gt;Hungarian soldiers and workers joined the students on the streets of Budapest. The Hungarian Communist Party forced to appointed a new Prime Minister, Imre Nagy.&amp;nbsp;&lt;/font&gt;" style="shape=offPageConnector;whiteSpace=wrap;html=1;fillColor=#0075E8;fontSize=12;fontColor=#FFFFFF;size=0;verticalAlign=top;strokeColor=none;fontFamily=Garamond;" vertex="1" parent="1">
          <mxGeometry x="1038" y="230" width="160" height="110" as="geometry" />
        </mxCell>
        <mxCell id="olR5RwuTCDaTEog6YX5e-32" value="" style="ellipse;whiteSpace=wrap;html=1;fillColor=#61BAFF;fontSize=28;fontColor=#004D99;strokeWidth=3;strokeColor=#004D99;" vertex="1" parent="1">
          <mxGeometry x="1337" y="445" width="20" height="20" as="geometry" />
        </mxCell>
        <mxCell id="olR5RwuTCDaTEog6YX5e-33" value="&lt;h1 style=&quot;font-size: 10px&quot;&gt;&lt;br style=&quot;font-size: 10px&quot;&gt;&lt;/h1&gt;&lt;div&gt;&lt;br&gt;&lt;/div&gt;" style="text;html=1;spacing=5;spacingTop=-20;whiteSpace=wrap;overflow=hidden;strokeColor=none;strokeWidth=3;fillColor=#E6E6E6;fontSize=13;fontColor=#000000;align=center;rounded=1;" vertex="1" parent="1">
          <mxGeometry x="1240" y="300" width="215" height="120" as="geometry" />
        </mxCell>
        <mxCell id="olR5RwuTCDaTEog6YX5e-34" value="&lt;b&gt;&lt;font style=&quot;font-size: 15px&quot;&gt;Soviet tanks move in and then withdraw&lt;/font&gt;&lt;/b&gt;" style="shape=offPageConnector;whiteSpace=wrap;html=1;fillColor=#0075E8;fontSize=15;fontColor=#FFFFFF;size=0.4178571428571445;flipV=1;verticalAlign=bottom;strokeColor=none;spacingBottom=4;" vertex="1" parent="1">
          <mxGeometry x="1266.07" y="480" width="160" height="75" as="geometry" />
        </mxCell>
        <mxCell id="olR5RwuTCDaTEog6YX5e-35" value="&lt;div&gt;&lt;span style=&quot;font-size: 11px&quot;&gt;24 October 1956, Soviet tanks stationed outside the Parliament + Soviet soldiers guarded key roads.&amp;nbsp;&lt;/span&gt;&lt;/div&gt;&lt;div&gt;&lt;span style=&quot;font-size: 11px&quot;&gt;Nagy asked Khrushchev to remove Russian troops from Hungary. Khrushchev agree to avoid bloody fighting, and pulled out his army.&lt;/span&gt;&lt;/div&gt;&lt;div&gt;&lt;br&gt;&lt;/div&gt;" style="shape=offPageConnector;whiteSpace=wrap;html=1;fillColor=#0075E8;fontSize=11;fontColor=#FFFFFF;size=0;verticalAlign=top;strokeColor=none;fontFamily=Helvetica;" vertex="1" parent="1">
          <mxGeometry x="1265.57" y="565" width="164.43" height="145" as="geometry" />
        </mxCell>
        <mxCell id="olR5RwuTCDaTEog6YX5e-40" value="" style="ellipse;whiteSpace=wrap;html=1;fillColor=#61BAFF;fontSize=28;fontColor=#004D99;strokeWidth=3;strokeColor=#004D99;" vertex="1" parent="1">
          <mxGeometry x="1568" y="445" width="20" height="20" as="geometry" />
        </mxCell>
        <mxCell id="olR5RwuTCDaTEog6YX5e-41" value="&lt;h1 style=&quot;font-size: 10px&quot;&gt;&lt;br&gt;&lt;/h1&gt;&lt;p style=&quot;font-size: 10px&quot;&gt;Lorem ipsum dolor sit amet, consectetur adipisicing elit, sed do eiusmod tempor incididunt ut labore et dolore magna aliqua.&lt;/p&gt;" style="text;html=1;spacing=5;spacingTop=-20;whiteSpace=wrap;overflow=hidden;strokeColor=none;strokeWidth=3;fillColor=#E6E6E6;fontSize=10;fontColor=#000000;align=center;rounded=1;" vertex="1" parent="1">
          <mxGeometry x="1470" y="480" width="215" height="120" as="geometry" />
        </mxCell>
        <mxCell id="olR5RwuTCDaTEog6YX5e-42" value="&lt;span style=&quot;font-size: 16px&quot;&gt;&lt;b&gt;Nagy’s plans&lt;/b&gt;&lt;/span&gt;" style="shape=offPageConnector;whiteSpace=wrap;html=1;fillColor=#0075E8;fontSize=15;fontColor=#FFFFFF;size=0.5093750000000015;verticalAlign=top;strokeColor=none;" vertex="1" parent="1">
          <mxGeometry x="1498" y="350" width="160" height="80" as="geometry" />
        </mxCell>
        <mxCell id="olR5RwuTCDaTEog6YX5e-43" value="&lt;div&gt;29 October–3 November: Nagy introduced democracy, freedom of speech &amp;amp; religion. Cardinal Joseph Mindszenty and other political prisoners were released from prison. Leaving from Warsaw Pact was announced.&amp;nbsp;&lt;/div&gt;" style="shape=offPageConnector;whiteSpace=wrap;html=1;fillColor=#0075E8;fontSize=12;fontColor=#FFFFFF;size=0;verticalAlign=top;strokeColor=none;fontFamily=Garamond;" vertex="1" parent="1">
          <mxGeometry x="1498" y="200" width="160" height="140" as="geometry" />
        </mxCell>
      </root>
    </mxGraphModel>
  </diagram>
</mxfile>
